<svg width="120" height="120" viewBox="0 0 120 120" fill="none" xmlns="http://www.w3.org/2000/svg">
<path d="M7.6027 117.386C0.615669 113.658 -2.02626 104.981 1.70194 97.9937L50.182 7.01477C54.4601 -1.01831 65.9934 -1.0049 70.2446 7.055L118.336 98.0205C122.037 105.021 119.355 113.684 112.368 117.386C105.368 121.087 96.7041 118.405 93.0027 111.418L73.034 73.6531C67.549 63.2731 52.7033 63.2463 47.178 73.6129L26.9947 111.485C23.2665 118.472 14.5897 121.114 7.61611 117.386H7.6027Z" fill="url(#paint0_linear_10_2)"/>
<path d="M77.7546 45.1819C87.0483 45.5977 92.6004 51.3777 96.047 55.8838L70.2312 7.055C65.9799 -0.991488 54.4466 -1.01831 50.1686 7.01477L1.68851 97.9937C-2.0397 104.981 0.615643 113.658 7.58927 117.386C14.5763 121.114 23.2531 118.459 26.9679 111.485L48.5325 71.0112C48.5325 71.0112 61.5946 44.4712 77.7412 45.1953L77.7546 45.1819Z" fill="url(#paint1_linear_10_2)"/>
<path d="M80.3965 104.833C87.8846 104.833 93.9549 98.763 93.9549 91.2749C93.9549 83.7868 87.8846 77.7166 80.3965 77.7166C72.9085 77.7166 66.8382 83.7868 66.8382 91.2749C66.8382 98.763 72.9085 104.833 80.3965 104.833Z" fill="#248D9B"/>
<path d="M80.9464 83.6307C81.7981 83.6307 82.4886 82.9403 82.4886 82.0885C82.4886 81.2367 81.7981 80.5462 80.9464 80.5462C80.0946 80.5462 79.4041 81.2367 79.4041 82.0885C79.4041 82.9403 80.0946 83.6307 80.9464 83.6307Z" fill="#32F8F8"/>
<path d="M86.4046 103.438C87.5445 102.875 88.5638 102.164 89.4623 101.36C88.9661 100.595 88.2151 100.22 86.8606 99.7237C83.2665 98.396 84.2723 94.8288 83.1056 93.1256C80.7318 89.679 76.4136 91.1676 74.6299 96.4515C73.9057 98.5972 71.9075 100.421 68.5146 97.7523C71.9746 104.122 79.8601 106.684 86.418 103.452L86.4046 103.438Z" fill="#32F8F8"/>
<path d="M87.5847 83.0407C91.0447 85.3339 86.5521 88.8744 90.0523 92.2002C91.2995 93.3804 93.2441 93.1256 93.9146 92.1868C94.0756 89.8802 93.6598 87.5065 92.5601 85.2803C91.2325 82.5847 89.1136 80.5462 86.6326 79.2588C85.8279 80.3987 86.0022 82.008 87.5847 83.0541V83.0407Z" fill="#32F8F8"/>
<defs>
<linearGradient id="paint0_linear_10_2" x1="44.7104" y1="73.4787" x2="81.1208" y2="132.567" gradientUnits="userSpaceOnUse">
<stop stop-color="#782871"/>
<stop offset="1" stop-color="#B52840"/>
</linearGradient>
<linearGradient id="paint1_linear_10_2" x1="-0.00125469" y1="60.0411" x2="96.047" y2="60.0411" gradientUnits="userSpaceOnUse">
<stop stop-color="#CE6B88"/>
<stop offset="1" stop-color="#BB273E"/>
</linearGradient>
</defs>
</svg>
